<svg width="1069" height="1070" viewBox="0 0 1069 1070" fill="none" xmlns="http://www.w3.org/2000/svg">
<circle cx="534.34" cy="534.956" r="399.5" transform="rotate(-25.8369 534.34 534.956)" stroke="#FFD895"/>
<path d="M252.452 248.866C253.896 248.551 255.171 249.856 254.823 251.291L250.407 269.494C250.037 271.021 248.131 271.544 247.033 270.421L233.149 256.213C232.051 255.09 232.618 253.197 234.153 252.861L252.452 248.866Z" fill="#6974E5"/>
<path d="M265.296 816.149C266.704 816.595 267.159 818.362 266.141 819.433L253.238 833.01C252.155 834.149 250.243 833.652 249.851 832.131L244.9 812.893C244.508 811.371 245.943 810.013 247.441 810.488L256.172 813.256L265.296 816.149Z" fill="#6974E5"/>
<path d="M824.834 258.237C825.185 259.672 823.912 260.979 822.468 260.667L804.161 256.706C802.625 256.373 802.055 254.482 803.151 253.356L817.009 239.122C818.105 237.997 820.011 238.516 820.384 240.042L824.834 258.237Z" fill="#6974E5"/>
<path d="M830.806 816.354C831.808 817.44 831.326 819.2 829.911 819.624L811.972 825.012C810.467 825.464 809.053 824.084 809.467 822.568L814.712 803.408C815.127 801.893 817.047 801.425 818.112 802.581L830.806 816.354Z" fill="#6974E5"/>
<circle cx="534" cy="134" r="25" fill="#6974E5"/>
<path d="M534 136.629C535.467 136.629 536.656 135.439 536.656 133.972C536.656 132.505 535.467 131.316 534 131.316C532.533 131.316 531.344 132.505 531.344 133.972C531.344 135.439 532.533 136.629 534 136.629Z" fill="white"/>
<path d="M534 140.063C530.807 140.14 527.623 139.709 524.565 138.788C523.153 138.34 521.835 137.635 520.679 136.707C520.238 136.39 519.871 135.982 519.603 135.51C519.335 135.038 519.172 134.513 519.125 133.972C519.125 132.216 521.054 130.495 524.287 129.369C527.426 128.371 530.706 127.887 534 127.936C537.25 127.891 540.486 128.366 543.586 129.343C544.946 129.777 546.219 130.448 547.345 131.326C547.778 131.628 548.14 132.021 548.405 132.479C548.669 132.936 548.83 133.446 548.875 133.972C548.875 135.798 546.718 137.648 543.244 138.797C540.245 139.689 537.128 140.116 534 140.063V140.063ZM534 129.207C530.849 129.165 527.711 129.625 524.704 130.569C521.729 131.607 520.396 133.027 520.396 133.969C520.396 134.955 521.829 136.505 524.976 137.582C527.901 138.459 530.947 138.868 534 138.792C536.992 138.845 539.975 138.44 542.845 137.591C546.113 136.509 547.6 134.956 547.6 133.972C547.546 133.635 547.423 133.312 547.239 133.024C547.054 132.737 546.812 132.49 546.527 132.301C545.519 131.522 544.382 130.927 543.168 130.544C540.203 129.613 537.108 129.161 534 129.207V129.207Z" fill="white"/>
<path d="M527.965 147.221C527.469 147.232 526.98 147.112 526.546 146.872C525.024 145.995 524.497 143.464 525.136 140.101C525.84 136.883 527.06 133.799 528.748 130.971V130.971C530.332 128.133 532.36 125.567 534.754 123.37C535.81 122.408 537.027 121.64 538.35 121.103C538.828 120.879 539.35 120.763 539.879 120.763C540.407 120.763 540.929 120.879 541.408 121.103C542.99 122.015 543.514 124.807 542.775 128.391C542.049 131.435 540.861 134.349 539.252 137.032C537.724 139.837 535.76 142.38 533.434 144.569C532.34 145.568 531.071 146.357 529.691 146.894C529.138 147.1 528.555 147.21 527.965 147.221V147.221ZM529.849 131.602C528.238 134.311 527.069 137.258 526.385 140.335C525.798 143.432 526.362 145.294 527.182 145.768C528.032 146.26 530.095 145.794 532.601 143.605C534.821 141.509 536.696 139.074 538.154 136.391C539.696 133.825 540.836 131.039 541.534 128.129C542.229 124.755 541.629 122.69 540.777 122.199C540.457 122.076 540.116 122.022 539.774 122.038C539.433 122.054 539.098 122.141 538.792 122.293C537.614 122.779 536.532 123.469 535.594 124.331C533.306 126.436 531.369 128.892 529.856 131.608L529.849 131.602Z" fill="white"/>
<path d="M540.032 147.234C538.592 147.234 536.764 146.363 534.86 144.726C532.423 142.509 530.361 139.912 528.753 137.037V137.037C527.086 134.247 525.876 131.208 525.168 128.036C524.862 126.641 524.805 125.202 525.001 123.786C525.046 123.261 525.206 122.752 525.469 122.296C525.732 121.839 526.092 121.446 526.524 121.144C528.104 120.229 530.785 121.169 533.521 123.598C535.795 125.747 537.727 128.231 539.248 130.965C540.914 133.69 542.137 136.662 542.871 139.77C543.191 141.217 543.24 142.711 543.016 144.176C542.963 144.716 542.794 145.238 542.52 145.707C542.246 146.175 541.874 146.579 541.429 146.89C541.002 147.127 540.52 147.246 540.032 147.234V147.234ZM529.853 136.397C531.395 139.145 533.365 141.63 535.688 143.759C538.078 145.815 539.973 146.257 540.788 145.778C541.638 145.284 542.265 143.267 541.619 140.004C540.911 137.037 539.738 134.2 538.144 131.599C536.692 128.982 534.849 126.603 532.677 124.544C530.102 122.257 528.013 121.746 527.162 122.239C526.896 122.455 526.679 122.723 526.522 123.027C526.366 123.331 526.274 123.664 526.253 124.005C526.084 125.267 526.139 126.55 526.416 127.793C527.096 130.826 528.257 133.732 529.854 136.399L529.853 136.397Z" fill="white"/>
<circle cx="534" cy="934" r="25" fill="#6974E5"/>
<path d="M534 936.629C535.467 936.629 536.656 935.439 536.656 933.972C536.656 932.505 535.467 931.316 534 931.316C532.533 931.316 531.344 932.505 531.344 933.972C531.344 935.439 532.533 936.629 534 936.629Z" fill="white"/>
<path d="M534 940.063C530.807 940.14 527.623 939.709 524.565 938.788C523.153 938.34 521.835 937.635 520.679 936.707C520.238 936.39 519.871 935.982 519.603 935.51C519.335 935.038 519.172 934.513 519.125 933.972C519.125 932.216 521.054 930.495 524.287 929.369C527.426 928.371 530.706 927.887 534 927.936C537.25 927.891 540.486 928.366 543.586 929.343C544.946 929.777 546.219 930.448 547.345 931.326C547.778 931.628 548.14 932.021 548.405 932.479C548.669 932.936 548.83 933.446 548.875 933.972C548.875 935.798 546.718 937.648 543.244 938.797C540.245 939.689 537.128 940.116 534 940.063V940.063ZM534 929.207C530.849 929.165 527.711 929.625 524.704 930.569C521.729 931.607 520.396 933.027 520.396 933.969C520.396 934.955 521.829 936.505 524.976 937.582C527.901 938.459 530.947 938.868 534 938.792C536.992 938.845 539.975 938.44 542.845 937.591C546.113 936.509 547.6 934.956 547.6 933.972C547.546 933.635 547.423 933.312 547.239 933.024C547.054 932.737 546.812 932.49 546.527 932.301C545.519 931.522 544.382 930.928 543.168 930.544C540.203 929.613 537.108 929.161 534 929.207V929.207Z" fill="white"/>
<path d="M527.965 947.221C527.469 947.232 526.98 947.112 526.546 946.872C525.024 945.995 524.497 943.464 525.136 940.101C525.84 936.883 527.06 933.8 528.748 930.971V930.971C530.332 928.133 532.36 925.567 534.754 923.37C535.81 922.408 537.027 921.641 538.35 921.103C538.828 920.879 539.35 920.763 539.879 920.763C540.407 920.763 540.929 920.879 541.408 921.103C542.99 922.015 543.514 924.807 542.775 928.391C542.049 931.435 540.861 934.349 539.252 937.032C537.724 939.837 535.76 942.38 533.434 944.569C532.34 945.568 531.071 946.357 529.691 946.895C529.138 947.1 528.555 947.21 527.965 947.221V947.221ZM529.849 931.602C528.238 934.311 527.069 937.258 526.385 940.335C525.798 943.432 526.362 945.294 527.182 945.768C528.032 946.26 530.095 945.794 532.601 943.605C534.821 941.509 536.696 939.074 538.154 936.391C539.696 933.825 540.836 931.039 541.534 928.129C542.229 924.755 541.629 922.69 540.777 922.199C540.457 922.076 540.116 922.022 539.774 922.038C539.433 922.054 539.098 922.141 538.792 922.293C537.614 922.779 536.532 923.469 535.594 924.331C533.306 926.436 531.369 928.892 529.856 931.608L529.849 931.602Z" fill="white"/>
<path d="M540.032 947.235C538.592 947.235 536.764 946.363 534.86 944.726C532.423 942.509 530.361 939.912 528.753 937.037V937.037C527.086 934.247 525.876 931.208 525.168 928.036C524.862 926.641 524.805 925.202 525.001 923.786C525.046 923.261 525.206 922.752 525.469 922.296C525.732 921.839 526.092 921.446 526.524 921.144C528.104 920.229 530.785 921.169 533.521 923.598C535.795 925.747 537.727 928.231 539.248 930.966C540.914 933.69 542.137 936.662 542.871 939.77C543.191 941.217 543.24 942.711 543.016 944.176C542.963 944.716 542.794 945.238 542.52 945.707C542.246 946.175 541.874 946.579 541.429 946.89C541.002 947.127 540.52 947.246 540.032 947.235V947.235ZM529.853 936.397C531.395 939.145 533.365 941.63 535.688 943.759C538.078 945.815 539.973 946.257 540.788 945.778C541.638 945.284 542.265 943.267 541.619 940.004C540.911 937.037 539.738 934.2 538.144 931.599C536.692 928.982 534.849 926.603 532.677 924.544C530.102 922.257 528.013 921.746 527.162 922.239C526.896 922.455 526.679 922.723 526.522 923.027C526.366 923.331 526.274 923.664 526.253 924.005C526.084 925.267 526.139 926.55 526.416 927.793C527.096 930.826 528.257 933.732 529.854 936.399L529.853 936.397Z" fill="white"/>
<circle cx="534" cy="934" r="25" fill="#6974E5"/>
<path d="M534.458 947C534.345 947 534.24 946.966 534.142 946.906L533.141 946.236C532.991 946.142 533.066 946.108 533.111 946.091C533.314 946.015 533.352 945.998 533.563 945.862C533.585 945.845 533.615 945.854 533.638 945.871L534.405 946.388C534.435 946.405 534.473 946.405 534.495 946.388L537.497 944.427C537.527 944.41 537.542 944.376 537.542 944.334V940.42C537.542 940.377 537.527 940.343 537.497 940.326L534.495 938.374C534.465 938.357 534.428 938.357 534.405 938.374L531.404 940.326C531.374 940.343 531.359 940.386 531.359 940.42V944.334C531.359 944.368 531.374 944.41 531.404 944.427L532.224 944.962C532.668 945.217 532.946 944.92 532.946 944.623V940.759C532.946 940.709 532.983 940.658 533.036 940.658H533.42C533.465 940.658 533.51 940.7 533.51 940.759V944.623C533.51 945.293 533.187 945.684 532.622 945.684C532.449 945.684 532.314 945.684 531.93 945.472L531.141 944.962C530.945 944.835 530.825 944.597 530.825 944.342V940.428C530.825 940.174 530.945 939.936 531.141 939.809L534.142 937.847C534.33 937.728 534.586 937.728 534.774 937.847L537.775 939.809C537.97 939.936 538.091 940.174 538.091 940.428V944.342C538.091 944.597 537.97 944.835 537.775 944.962L534.774 946.923C534.676 946.974 534.563 947 534.458 947ZM535.383 944.308C534.067 944.308 533.796 943.629 533.796 943.052C533.796 943.001 533.833 942.95 533.886 942.95H534.277C534.322 942.95 534.36 942.984 534.36 943.035C534.42 943.485 534.593 943.706 535.39 943.706C536.022 943.706 536.293 943.544 536.293 943.162C536.293 942.941 536.218 942.78 535.233 942.67C534.413 942.576 533.901 942.373 533.901 941.634C533.901 940.946 534.413 940.539 535.27 940.539C536.233 940.539 536.707 940.912 536.767 941.727C536.767 941.753 536.759 941.778 536.744 941.804C536.729 941.821 536.707 941.838 536.684 941.838H536.293C536.255 941.838 536.218 941.804 536.21 941.761C536.12 941.294 535.887 941.142 535.27 941.142C534.578 941.142 534.495 941.413 534.495 941.617C534.495 941.863 534.593 941.94 535.526 942.075C536.451 942.211 536.887 942.407 536.887 943.137C536.88 943.884 536.338 944.308 535.383 944.308Z" fill="white"/>
<path d="M525.146 931.692C525.146 931.539 525.071 931.395 524.95 931.318L521.761 929.247C521.708 929.213 521.648 929.196 521.588 929.187H521.558C521.498 929.187 521.437 929.213 521.385 929.247L518.196 931.318C518.075 931.395 518 931.539 518 931.692L518.008 937.261C518.008 937.338 518.045 937.414 518.105 937.448C518.165 937.491 518.241 937.491 518.293 937.448L520.189 936.226C520.309 936.149 520.384 936.005 520.384 935.852V933.246C520.384 933.093 520.46 932.948 520.58 932.872L521.385 932.346C521.445 932.303 521.513 932.286 521.58 932.286C521.648 932.286 521.716 932.303 521.768 932.346L522.573 932.872C522.694 932.948 522.769 933.093 522.769 933.246V935.852C522.769 936.005 522.844 936.149 522.964 936.226L524.86 937.448C524.92 937.491 524.995 937.491 525.055 937.448C525.116 937.414 525.153 937.338 525.153 937.261L525.146 931.692Z" fill="white"/>
<path d="M540.475 924.025C540.415 923.991 540.34 923.991 540.287 924.025C540.227 924.068 540.189 924.136 540.189 924.212V929.731C540.189 929.782 540.167 929.833 540.122 929.867C540.076 929.892 540.031 929.892 539.986 929.867L539.189 929.349C539.068 929.272 538.926 929.272 538.805 929.349L535.616 931.429C535.496 931.505 535.42 931.649 535.42 931.802V935.954C535.42 936.107 535.496 936.251 535.616 936.328L538.805 938.408C538.926 938.484 539.068 938.484 539.189 938.408L542.378 936.328C542.498 936.251 542.574 936.107 542.574 935.954V925.604C542.574 925.443 542.498 925.299 542.378 925.222L540.475 924.025ZM540.182 934.587C540.182 934.63 540.167 934.663 540.137 934.68L539.046 935.394C539.016 935.411 538.978 935.411 538.948 935.394L537.857 934.68C537.827 934.663 537.812 934.621 537.812 934.587V933.161C537.812 933.118 537.827 933.084 537.857 933.067L538.948 932.354C538.978 932.337 539.016 932.337 539.046 932.354L540.137 933.067C540.167 933.084 540.182 933.127 540.182 933.161V934.587Z" fill="white"/>
<path d="M551.088 933.127C551.209 933.05 551.276 932.906 551.276 932.753V931.743C551.276 931.59 551.201 931.446 551.088 931.369L547.922 929.298C547.801 929.221 547.658 929.221 547.538 929.298L544.349 931.378C544.229 931.454 544.153 931.599 544.153 931.751V935.903C544.153 936.056 544.229 936.2 544.349 936.277L547.516 938.314C547.636 938.391 547.779 938.391 547.892 938.314L549.81 937.109C549.87 937.075 549.908 936.998 549.908 936.922C549.908 936.845 549.87 936.769 549.81 936.735L546.605 934.655C546.545 934.613 546.508 934.545 546.508 934.468V933.169C546.508 933.093 546.545 933.016 546.605 932.982L547.606 932.337C547.666 932.295 547.741 932.295 547.801 932.337L548.802 932.982C548.862 933.025 548.9 933.093 548.9 933.169V934.188C548.9 934.264 548.937 934.341 548.997 934.375C549.058 934.417 549.133 934.417 549.193 934.375L551.088 933.127Z" fill="white"/>
<path d="M547.681 932.931C547.704 932.914 547.734 932.914 547.756 932.931L548.366 933.33C548.388 933.347 548.403 933.373 548.403 933.407V934.205C548.403 934.239 548.388 934.264 548.366 934.281L547.756 934.68C547.734 934.697 547.704 934.697 547.681 934.68L547.072 934.281C547.049 934.264 547.034 934.239 547.034 934.205V933.407C547.034 933.373 547.049 933.347 547.072 933.33L547.681 932.931Z" fill="white"/>
<path d="M530.479 929.315C530.358 929.238 530.215 929.238 530.095 929.315L526.928 931.378C526.808 931.454 526.74 931.599 526.74 931.751V935.886C526.74 936.039 526.815 936.183 526.928 936.26L530.095 938.323C530.215 938.399 530.358 938.399 530.479 938.323L533.645 936.26C533.766 936.183 533.833 936.039 533.833 935.886V931.751C533.833 931.599 533.758 931.454 533.645 931.378L530.479 929.315Z" fill="white"/>
<circle cx="934" cy="535" r="25" fill="#6974E5"/>
<path d="M932.681 522.007C932.628 522.012 932.456 522.029 932.302 522.041C928.752 522.361 925.426 524.277 923.319 527.222C922.146 528.859 921.396 530.716 921.112 532.684C921.012 533.37 921 533.573 921 534.504C921 535.435 921.012 535.638 921.112 536.325C921.792 541.019 925.132 544.964 929.663 546.425C930.475 546.687 931.33 546.865 932.302 546.972C932.681 547.014 934.319 547.014 934.697 546.972C936.376 546.787 937.799 546.371 939.201 545.655C939.416 545.545 939.458 545.516 939.429 545.492C939.409 545.477 938.493 544.248 937.393 542.762L935.394 540.061L932.889 536.354C931.511 534.316 930.377 532.649 930.367 532.649C930.357 532.647 930.348 534.294 930.343 536.305C930.335 539.827 930.333 539.969 930.289 540.052C930.225 540.171 930.176 540.22 930.074 540.274C929.996 540.313 929.927 540.321 929.558 540.321H929.135L929.023 540.25C928.95 540.203 928.896 540.142 928.859 540.071L928.808 539.961L928.813 535.061L928.82 530.159L928.896 530.064C928.935 530.013 929.018 529.947 929.077 529.915C929.177 529.866 929.216 529.861 929.639 529.861C930.137 529.861 930.22 529.881 930.35 530.022C930.387 530.061 931.743 532.104 933.366 534.565C934.988 537.026 937.207 540.386 938.297 542.036L940.277 545.035L940.377 544.969C941.264 544.392 942.202 543.571 942.945 542.715C944.526 540.9 945.545 538.686 945.888 536.325C945.988 535.638 946 535.435 946 534.504C946 533.573 945.988 533.37 945.888 532.684C945.208 527.989 941.867 524.045 937.337 522.583C936.538 522.324 935.687 522.146 934.734 522.038C934.499 522.014 932.884 521.987 932.681 522.007ZM937.799 529.568C937.916 529.626 938.011 529.739 938.045 529.856C938.065 529.92 938.07 531.278 938.065 534.341L938.058 538.734L937.283 537.547L936.506 536.359V533.165C936.506 531.1 936.516 529.939 936.53 529.883C936.569 529.746 936.655 529.639 936.772 529.575C936.872 529.524 936.909 529.519 937.293 529.519C937.654 529.519 937.718 529.524 937.799 529.568Z" fill="white"/>
<circle cx="132" cy="535" r="25" fill="#6974E5"/>
<g clip-path="url(#clip0_420_35)">
<path d="M144.992 522H119.008C119.003 522 119 522.003 119 522.008V547.992C119 547.997 119.003 548 119.008 548H144.992C144.997 548 145 547.997 145 547.992V522.008C145 522.003 144.997 522 144.992 522Z" fill="white"/>
<path d="M135.453 540.789C135.961 541.652 136.672 542.262 137.84 542.262C138.855 542.262 139.516 541.754 139.516 541.043C139.516 540.23 138.855 539.926 137.738 539.418L137.129 539.164C135.352 538.402 134.184 537.488 134.184 535.508C134.184 533.68 135.555 532.258 137.738 532.258C139.312 532.258 140.43 532.816 141.191 534.238L139.312 535.457C138.906 534.695 138.449 534.391 137.738 534.391C137.027 534.391 136.57 534.848 136.57 535.457C136.57 536.168 137.027 536.473 138.094 536.93L138.703 537.184C140.785 538.098 141.953 538.961 141.953 541.043C141.953 543.227 140.227 544.445 137.891 544.445C135.605 544.445 134.133 543.379 133.422 541.957L135.453 540.789ZM126.82 540.992C127.227 541.652 127.531 542.262 128.395 542.262C129.207 542.262 129.715 541.957 129.715 540.738V532.309H132.152V540.637C132.152 543.176 130.68 544.293 128.496 544.293C126.516 544.293 125.398 543.277 124.84 542.059L126.82 540.992Z" fill="#6974E5"/>
</g>
<defs>
<clipPath id="clip0_420_35">
<rect width="26" height="26" fill="white" transform="translate(119 522)"/>
</clipPath>
</defs>
</svg>
