<svg width="1105" height="886" viewBox="0 0 1105 886" fill="none" xmlns="http://www.w3.org/2000/svg">
<path d="M992.829 229.227C1023.33 292.213 1001.8 373.168 942.067 453.216C882.35 533.242 784.532 612.237 662.756 671.202C540.981 730.167 418.35 757.918 318.537 755.138C218.697 752.357 141.838 719.043 111.34 656.057C80.8411 593.072 102.369 512.117 162.103 432.069C221.819 352.042 319.637 273.048 441.413 214.083C563.188 155.117 685.819 127.367 785.632 130.147C885.472 132.928 962.331 166.242 992.829 229.227Z" stroke="#FFD895"/>
<path d="M208.024 375.7C209.467 375.383 210.744 376.686 210.397 378.122L206.006 396.331C205.638 397.858 203.733 398.384 202.634 397.262L188.73 383.073C187.631 381.951 188.195 380.057 189.73 379.72L208.024 375.7Z" fill="#6974E5"/>
<path d="M401.288 740.733C402.529 739.932 404.181 740.708 404.357 742.175L406.599 760.771C406.787 762.331 405.186 763.488 403.763 762.821L385.782 754.378C384.359 753.71 384.227 751.738 385.548 750.887L393.244 745.922L401.288 740.733Z" fill="#6974E5"/>
<path d="M923.105 490.908C924.175 491.927 923.808 493.714 922.424 494.23L904.873 500.774C903.401 501.323 901.9 500.038 902.215 498.498L906.202 479.037C906.518 477.498 908.403 476.907 909.541 477.99L923.105 490.908Z" fill="#6974E5"/>
<circle cx="449" cy="210" r="25" fill="#6974E5"/>
<path d="M449 212.629C450.467 212.629 451.656 211.439 451.656 209.972C451.656 208.505 450.467 207.316 449 207.316C447.533 207.316 446.344 208.505 446.344 209.972C446.344 211.439 447.533 212.629 449 212.629Z" fill="white"/>
<path d="M449 216.063C445.807 216.14 442.623 215.71 439.565 214.788C438.153 214.34 436.835 213.635 435.679 212.707C435.238 212.391 434.871 211.982 434.603 211.51C434.335 211.038 434.172 210.513 434.125 209.972C434.125 208.216 436.054 206.495 439.287 205.369C442.426 204.371 445.706 203.887 449 203.936C452.25 203.891 455.486 204.366 458.586 205.343C459.946 205.777 461.219 206.448 462.345 207.326C462.778 207.628 463.14 208.021 463.405 208.479C463.669 208.936 463.83 209.446 463.875 209.972C463.875 211.798 461.718 213.648 458.244 214.797C455.245 215.689 452.128 216.116 449 216.063V216.063ZM449 205.207C445.849 205.165 442.711 205.625 439.704 206.569C436.729 207.607 435.396 209.027 435.396 209.969C435.396 210.955 436.829 212.505 439.976 213.582C442.901 214.459 445.947 214.868 449 214.792C451.992 214.845 454.975 214.441 457.845 213.591C461.113 212.509 462.6 210.956 462.6 209.972C462.546 209.635 462.423 209.312 462.239 209.024C462.054 208.737 461.812 208.49 461.527 208.301C460.519 207.522 459.382 206.928 458.168 206.544C455.203 205.613 452.108 205.161 449 205.207V205.207Z" fill="white"/>
<path d="M442.965 223.221C442.469 223.232 441.98 223.112 441.546 222.872C440.024 221.995 439.497 219.464 440.136 216.101C440.84 212.883 442.06 209.8 443.748 206.971V206.971C445.332 204.133 447.36 201.567 449.754 199.37C450.81 198.408 452.027 197.641 453.35 197.103C453.828 196.879 454.35 196.763 454.879 196.763C455.407 196.763 455.929 196.879 456.408 197.103C457.99 198.015 458.514 200.807 457.775 204.391C457.049 207.435 455.861 210.349 454.252 213.032C452.724 215.837 450.76 218.381 448.434 220.569C447.34 221.568 446.071 222.357 444.691 222.895C444.138 223.1 443.555 223.21 442.965 223.221V223.221ZM444.849 207.602C443.238 210.311 442.069 213.258 441.385 216.335C440.798 219.432 441.362 221.294 442.182 221.768C443.032 222.26 445.095 221.794 447.601 219.605C449.821 217.509 451.696 215.074 453.154 212.391C454.696 209.825 455.836 207.039 456.534 204.129C457.229 200.755 456.629 198.69 455.777 198.199C455.457 198.076 455.116 198.022 454.774 198.038C454.433 198.054 454.098 198.141 453.792 198.293C452.614 198.779 451.532 199.469 450.594 200.331C448.306 202.436 446.369 204.893 444.856 207.608L444.849 207.602Z" fill="white"/>
<path d="M455.032 223.235C453.592 223.235 451.764 222.363 449.86 220.726C447.423 218.509 445.361 215.912 443.753 213.037V213.037C442.086 210.247 440.876 207.208 440.168 204.036C439.862 202.641 439.805 201.202 440.001 199.786C440.046 199.261 440.206 198.752 440.469 198.296C440.732 197.839 441.092 197.446 441.524 197.144C443.104 196.229 445.785 197.169 448.521 199.598C450.795 201.747 452.727 204.231 454.248 206.966C455.914 209.69 457.137 212.662 457.871 215.77C458.191 217.217 458.24 218.711 458.016 220.176C457.963 220.716 457.794 221.238 457.52 221.707C457.246 222.175 456.874 222.579 456.429 222.89C456.002 223.127 455.52 223.246 455.032 223.235V223.235ZM444.853 212.397C446.395 215.145 448.365 217.63 450.688 219.759C453.078 221.815 454.973 222.257 455.788 221.778C456.638 221.284 457.265 219.267 456.619 216.004C455.911 213.037 454.738 210.2 453.144 207.599C451.692 204.982 449.849 202.603 447.677 200.544C445.102 198.257 443.013 197.746 442.162 198.239C441.896 198.455 441.679 198.723 441.522 199.027C441.366 199.331 441.274 199.664 441.253 200.005C441.084 201.267 441.139 202.55 441.416 203.793C442.096 206.826 443.257 209.732 444.854 212.399L444.853 212.397Z" fill="white"/>
<circle cx="662" cy="673" r="25" fill="#6974E5"/>
<path d="M662 675.629C663.467 675.629 664.656 674.439 664.656 672.972C664.656 671.505 663.467 670.316 662 670.316C660.533 670.316 659.344 671.505 659.344 672.972C659.344 674.439 660.533 675.629 662 675.629Z" fill="white"/>
<path d="M662 679.063C658.807 679.14 655.623 678.709 652.565 677.788C651.153 677.34 649.835 676.635 648.679 675.707C648.238 675.39 647.871 674.982 647.603 674.51C647.335 674.038 647.172 673.513 647.125 672.972C647.125 671.216 649.054 669.495 652.287 668.369C655.426 667.371 658.706 666.887 662 666.936C665.25 666.891 668.486 667.366 671.586 668.343C672.946 668.777 674.219 669.448 675.345 670.326C675.778 670.628 676.14 671.021 676.405 671.479C676.669 671.936 676.83 672.446 676.875 672.972C676.875 674.798 674.718 676.648 671.244 677.797C668.245 678.689 665.128 679.116 662 679.063V679.063ZM662 668.207C658.849 668.165 655.711 668.625 652.704 669.569C649.729 670.607 648.396 672.027 648.396 672.969C648.396 673.955 649.829 675.505 652.976 676.582C655.901 677.459 658.947 677.868 662 677.792C664.992 677.845 667.975 677.44 670.845 676.591C674.113 675.509 675.6 673.956 675.6 672.972C675.546 672.635 675.423 672.312 675.239 672.024C675.054 671.737 674.812 671.49 674.527 671.301C673.519 670.522 672.382 669.928 671.168 669.544C668.203 668.613 665.108 668.161 662 668.207V668.207Z" fill="white"/>
<path d="M655.965 686.221C655.469 686.232 654.98 686.112 654.546 685.872C653.024 684.995 652.497 682.464 653.136 679.101C653.84 675.883 655.06 672.8 656.748 669.971V669.971C658.332 667.133 660.36 664.567 662.754 662.37C663.81 661.408 665.027 660.641 666.35 660.103C666.828 659.879 667.35 659.763 667.879 659.763C668.407 659.763 668.929 659.879 669.408 660.103C670.99 661.015 671.514 663.807 670.775 667.391C670.049 670.435 668.861 673.349 667.252 676.032C665.724 678.837 663.76 681.38 661.434 683.569C660.34 684.568 659.071 685.357 657.691 685.895C657.138 686.1 656.555 686.21 655.965 686.221V686.221ZM657.849 670.602C656.238 673.311 655.069 676.258 654.385 679.335C653.798 682.432 654.362 684.294 655.182 684.768C656.032 685.26 658.095 684.794 660.601 682.605C662.821 680.509 664.696 678.074 666.154 675.391C667.696 672.825 668.836 670.039 669.534 667.129C670.229 663.755 669.629 661.69 668.777 661.199C668.457 661.076 668.116 661.022 667.774 661.038C667.433 661.054 667.098 661.141 666.792 661.293C665.614 661.779 664.532 662.469 663.594 663.331C661.306 665.436 659.369 667.892 657.856 670.608L657.849 670.602Z" fill="white"/>
<path d="M668.032 686.234C666.592 686.234 664.764 685.363 662.86 683.726C660.423 681.509 658.361 678.912 656.753 676.037V676.037C655.086 673.247 653.876 670.208 653.168 667.036C652.862 665.641 652.805 664.202 653.001 662.786C653.046 662.261 653.206 661.752 653.469 661.296C653.732 660.839 654.092 660.446 654.524 660.144C656.104 659.229 658.785 660.169 661.521 662.598C663.795 664.747 665.727 667.231 667.248 669.965C668.914 672.69 670.137 675.662 670.871 678.77C671.191 680.217 671.24 681.711 671.016 683.176C670.963 683.716 670.794 684.238 670.52 684.707C670.246 685.175 669.874 685.579 669.429 685.89C669.002 686.127 668.52 686.246 668.032 686.234V686.234ZM657.853 675.397C659.395 678.145 661.365 680.63 663.688 682.759C666.078 684.815 667.973 685.257 668.788 684.778C669.638 684.284 670.265 682.267 669.619 679.004C668.911 676.037 667.738 673.2 666.144 670.599C664.692 667.982 662.849 665.603 660.677 663.544C658.102 661.257 656.013 660.746 655.162 661.239C654.896 661.455 654.679 661.723 654.522 662.027C654.366 662.331 654.274 662.664 654.253 663.005C654.084 664.267 654.139 665.55 654.416 666.793C655.096 669.826 656.257 672.732 657.854 675.399L657.853 675.397Z" fill="white"/>
<circle cx="662" cy="673" r="25" fill="#6974E5"/>
<path d="M662.458 686C662.345 686 662.24 685.966 662.142 685.906L661.141 685.236C660.991 685.142 661.066 685.108 661.111 685.091C661.314 685.015 661.352 684.998 661.563 684.862C661.585 684.845 661.615 684.854 661.638 684.871L662.405 685.388C662.435 685.405 662.473 685.405 662.495 685.388L665.497 683.427C665.527 683.41 665.542 683.376 665.542 683.334V679.42C665.542 679.377 665.527 679.343 665.497 679.326L662.495 677.374C662.465 677.357 662.428 677.357 662.405 677.374L659.404 679.326C659.374 679.343 659.359 679.386 659.359 679.42V683.334C659.359 683.368 659.374 683.41 659.404 683.427L660.224 683.962C660.668 684.217 660.946 683.92 660.946 683.623V679.759C660.946 679.709 660.983 679.658 661.036 679.658H661.42C661.465 679.658 661.51 679.7 661.51 679.759V683.623C661.51 684.293 661.187 684.684 660.622 684.684C660.449 684.684 660.314 684.684 659.93 684.472L659.141 683.962C658.945 683.835 658.825 683.597 658.825 683.342V679.428C658.825 679.174 658.945 678.936 659.141 678.809L662.142 676.847C662.33 676.728 662.586 676.728 662.774 676.847L665.775 678.809C665.97 678.936 666.091 679.174 666.091 679.428V683.342C666.091 683.597 665.97 683.835 665.775 683.962L662.774 685.923C662.676 685.974 662.563 686 662.458 686ZM663.383 683.308C662.067 683.308 661.796 682.629 661.796 682.052C661.796 682.001 661.833 681.95 661.886 681.95H662.277C662.322 681.95 662.36 681.984 662.36 682.035C662.42 682.485 662.593 682.706 663.39 682.706C664.022 682.706 664.293 682.544 664.293 682.162C664.293 681.941 664.218 681.78 663.233 681.67C662.413 681.576 661.901 681.373 661.901 680.634C661.901 679.946 662.413 679.539 663.27 679.539C664.233 679.539 664.707 679.912 664.767 680.727C664.767 680.753 664.759 680.778 664.744 680.804C664.729 680.821 664.707 680.838 664.684 680.838H664.293C664.255 680.838 664.218 680.804 664.21 680.761C664.12 680.294 663.887 680.142 663.27 680.142C662.578 680.142 662.495 680.413 662.495 680.617C662.495 680.863 662.593 680.94 663.526 681.075C664.451 681.211 664.887 681.407 664.887 682.137C664.88 682.884 664.338 683.308 663.383 683.308Z" fill="white"/>
<path d="M653.146 670.692C653.146 670.539 653.071 670.395 652.95 670.318L649.761 668.247C649.708 668.213 649.648 668.196 649.588 668.187H649.558C649.498 668.187 649.437 668.213 649.385 668.247L646.196 670.318C646.075 670.395 646 670.539 646 670.692L646.008 676.261C646.008 676.338 646.045 676.414 646.105 676.448C646.165 676.491 646.241 676.491 646.293 676.448L648.189 675.226C648.309 675.149 648.384 675.005 648.384 674.852V672.246C648.384 672.093 648.46 671.948 648.58 671.872L649.385 671.346C649.445 671.303 649.513 671.286 649.58 671.286C649.648 671.286 649.716 671.303 649.768 671.346L650.573 671.872C650.694 671.948 650.769 672.093 650.769 672.246V674.852C650.769 675.005 650.844 675.149 650.964 675.226L652.86 676.448C652.92 676.491 652.995 676.491 653.055 676.448C653.116 676.414 653.153 676.338 653.153 676.261L653.146 670.692Z" fill="white"/>
<path d="M668.475 663.025C668.415 662.991 668.34 662.991 668.287 663.025C668.227 663.068 668.189 663.136 668.189 663.212V668.731C668.189 668.782 668.167 668.833 668.122 668.867C668.076 668.892 668.031 668.892 667.986 668.867L667.189 668.349C667.068 668.272 666.926 668.272 666.805 668.349L663.616 670.429C663.496 670.505 663.42 670.649 663.42 670.802V674.954C663.42 675.107 663.496 675.251 663.616 675.328L666.805 677.408C666.926 677.484 667.068 677.484 667.189 677.408L670.378 675.328C670.498 675.251 670.574 675.107 670.574 674.954V664.604C670.574 664.443 670.498 664.299 670.378 664.222L668.475 663.025ZM668.182 673.587C668.182 673.63 668.167 673.663 668.137 673.68L667.046 674.394C667.016 674.411 666.978 674.411 666.948 674.394L665.857 673.68C665.827 673.663 665.812 673.621 665.812 673.587V672.161C665.812 672.118 665.827 672.084 665.857 672.067L666.948 671.354C666.978 671.337 667.016 671.337 667.046 671.354L668.137 672.067C668.167 672.084 668.182 672.127 668.182 672.161V673.587Z" fill="white"/>
<path d="M679.088 672.127C679.209 672.05 679.276 671.906 679.276 671.753V670.743C679.276 670.59 679.201 670.446 679.088 670.369L675.922 668.298C675.801 668.221 675.658 668.221 675.538 668.298L672.349 670.378C672.229 670.454 672.153 670.598 672.153 670.751V674.903C672.153 675.056 672.229 675.2 672.349 675.277L675.516 677.314C675.636 677.391 675.779 677.391 675.892 677.314L677.81 676.109C677.87 676.075 677.908 675.998 677.908 675.922C677.908 675.845 677.87 675.769 677.81 675.735L674.605 673.655C674.545 673.613 674.508 673.545 674.508 673.468V672.169C674.508 672.093 674.545 672.016 674.605 671.982L675.606 671.337C675.666 671.295 675.741 671.295 675.801 671.337L676.802 671.982C676.862 672.025 676.9 672.093 676.9 672.169V673.188C676.9 673.264 676.937 673.341 676.997 673.375C677.058 673.417 677.133 673.417 677.193 673.375L679.088 672.127Z" fill="white"/>
<path d="M675.681 671.931C675.704 671.914 675.734 671.914 675.756 671.931L676.366 672.33C676.388 672.347 676.403 672.373 676.403 672.407V673.205C676.403 673.239 676.388 673.264 676.366 673.281L675.756 673.68C675.734 673.697 675.704 673.697 675.681 673.68L675.072 673.281C675.049 673.264 675.034 673.239 675.034 673.205V672.407C675.034 672.373 675.049 672.347 675.072 672.33L675.681 671.931Z" fill="white"/>
<path d="M658.479 668.315C658.358 668.238 658.215 668.238 658.095 668.315L654.928 670.378C654.808 670.454 654.74 670.598 654.74 670.751V674.886C654.74 675.039 654.815 675.183 654.928 675.26L658.095 677.323C658.215 677.399 658.358 677.399 658.479 677.323L661.645 675.26C661.766 675.183 661.833 675.039 661.833 674.886V670.751C661.833 670.598 661.758 670.454 661.645 670.378L658.479 668.315Z" fill="white"/>
<circle cx="998" cy="241" r="25" fill="#6974E5"/>
<path d="M996.681 228.007C996.628 228.012 996.456 228.029 996.302 228.041C992.752 228.361 989.426 230.277 987.319 233.222C986.146 234.859 985.396 236.716 985.112 238.684C985.012 239.37 985 239.573 985 240.504C985 241.435 985.012 241.638 985.112 242.325C985.792 247.019 989.132 250.964 993.663 252.425C994.475 252.687 995.33 252.865 996.302 252.972C996.681 253.014 998.319 253.014 998.697 252.972C1000.38 252.787 1001.8 252.371 1003.2 251.655C1003.42 251.545 1003.46 251.516 1003.43 251.492C1003.41 251.477 1002.49 250.248 1001.39 248.762L999.394 246.061L996.889 242.354C995.511 240.316 994.377 238.649 994.367 238.649C994.357 238.647 994.348 240.294 994.343 242.305C994.335 245.827 994.333 245.969 994.289 246.052C994.225 246.171 994.176 246.22 994.074 246.274C993.996 246.313 993.927 246.321 993.558 246.321H993.135L993.023 246.25C992.95 246.203 992.896 246.142 992.859 246.071L992.808 245.961L992.813 241.061L992.82 236.159L992.896 236.064C992.935 236.013 993.018 235.947 993.077 235.915C993.177 235.866 993.216 235.861 993.639 235.861C994.137 235.861 994.22 235.881 994.35 236.022C994.387 236.061 995.743 238.104 997.366 240.565C998.988 243.026 1001.21 246.386 1002.3 248.036L1004.28 251.035L1004.38 250.969C1005.26 250.392 1006.2 249.571 1006.95 248.715C1008.53 246.9 1009.55 244.686 1009.89 242.325C1009.99 241.638 1010 241.435 1010 240.504C1010 239.573 1009.99 239.37 1009.89 238.684C1009.21 233.989 1005.87 230.045 1001.34 228.583C1000.54 228.324 999.687 228.146 998.734 228.038C998.499 228.014 996.884 227.987 996.681 228.007ZM1001.8 235.568C1001.92 235.626 1002.01 235.739 1002.05 235.856C1002.06 235.92 1002.07 237.278 1002.07 240.341L1002.06 244.734L1001.28 243.547L1000.51 242.359V239.165C1000.51 237.1 1000.52 235.939 1000.53 235.883C1000.57 235.746 1000.65 235.639 1000.77 235.575C1000.87 235.524 1000.91 235.519 1001.29 235.519C1001.65 235.519 1001.72 235.524 1001.8 235.568Z" fill="white"/>
<circle cx="110" cy="653" r="25" fill="#6974E5"/>
<g clip-path="url(#clip0_417_33)">
<path d="M122.992 640H97.0076C97.0034 640 97 640.003 97 640.008V665.992C97 665.997 97.0034 666 97.0076 666H122.992C122.997 666 123 665.997 123 665.992V640.008C123 640.003 122.997 640 122.992 640Z" fill="white"/>
<path d="M113.453 658.789C113.961 659.652 114.672 660.262 115.84 660.262C116.855 660.262 117.516 659.754 117.516 659.043C117.516 658.23 116.855 657.926 115.738 657.418L115.129 657.164C113.352 656.402 112.184 655.488 112.184 653.508C112.184 651.68 113.555 650.258 115.738 650.258C117.312 650.258 118.43 650.816 119.191 652.238L117.312 653.457C116.906 652.695 116.449 652.391 115.738 652.391C115.027 652.391 114.57 652.848 114.57 653.457C114.57 654.168 115.027 654.473 116.094 654.93L116.703 655.184C118.785 656.098 119.953 656.961 119.953 659.043C119.953 661.227 118.227 662.445 115.891 662.445C113.605 662.445 112.133 661.379 111.422 659.957L113.453 658.789ZM104.82 658.992C105.227 659.652 105.531 660.262 106.395 660.262C107.207 660.262 107.715 659.957 107.715 658.738V650.309H110.152V658.637C110.152 661.176 108.68 662.293 106.496 662.293C104.516 662.293 103.398 661.277 102.84 660.059L104.82 658.992Z" fill="#6974E5"/>
</g>
<defs>
<clipPath id="clip0_417_33">
<rect width="26" height="26" fill="white" transform="translate(97 640)"/>
</clipPath>
</defs>
</svg>
